<svg width="24" height="24" viewBox="0 0 24 24" fill="none" xmlns="http://www.w3.org/2000/svg">
<path d="M8.00011 13L12.2278 16.3822C12.6557 16.7245 13.2794 16.6587 13.6264 16.2345L22.0001 6.00005" stroke="#222222" stroke-linecap="round"/>
<path fill-rule="evenodd" clip-rule="evenodd" d="M10.1718 12.6907L10.887 11.8166L15.387 6.31662C15.5618 6.1029 15.5303 5.78788 15.3166 5.61302C15.1029 5.43816 14.7879 5.46966 14.613 5.68338L10.113 11.1834L9.40359 12.0505L10.1718 12.6907ZM8.27206 15.0126L7.5038 14.3724L6.22007 15.9414C6.0504 16.1488 5.74743 16.1856 5.53309 16.0248L2.3 13.6C2.07909 13.4343 1.76568 13.4791 1.6 13.7C1.43431 13.9209 1.47908 14.2343 1.7 14.4L4.93309 16.8248C5.57613 17.3071 6.48503 17.1968 6.99402 16.5747L8.27206 15.0126Z" fill="#222222"/>
</svg>
