<svg width="24" height="24" viewBox="0 0 24 24" fill="none" xmlns="http://www.w3.org/2000/svg">
<path d="M4.5 6.8996C4.5 6.05952 4.5 5.63949 4.66349 5.31862C4.8073 5.03637 5.03677 4.8069 5.31901 4.66309C5.63988 4.4996 6.05992 4.4996 6.9 4.4996H9.47237C9.84808 4.4996 10.0359 4.4996 10.2065 4.55139C10.3574 4.59724 10.4978 4.6724 10.6197 4.77258C10.7574 4.88574 10.8616 5.04205 11.07 5.35468L11.93 6.64493C12.1384 6.95755 12.2426 7.11387 12.3803 7.22703C12.5022 7.32721 12.6426 7.40237 12.7935 7.44822C12.9641 7.5 13.1519 7.5 13.5276 7.5H17.1C17.9401 7.5 18.3601 7.5 18.681 7.66349C18.9632 7.8073 19.1927 8.03678 19.3365 8.31902C19.5 8.63989 19.5 9.05993 19.5 9.9V16.1C19.5 16.9401 19.5 17.3601 19.3365 17.681C19.1927 17.9632 18.9632 18.1927 18.681 18.3365C18.3601 18.5 17.9401 18.5 17.1 18.5H6.9C6.05992 18.5 5.63988 18.5 5.31901 18.3365C5.03677 18.1927 4.8073 17.9632 4.66349 17.681C4.5 17.3601 4.5 16.9401 4.5 16.1V6.8996Z" stroke="#222222" stroke-linecap="round"/>
</svg>
