<svg width="24" height="24" viewBox="0 0 24 24" fill="none" xmlns="http://www.w3.org/2000/svg">
<path d="M2.5 6.5C2.5 4.29086 4.29086 2.5 6.5 2.5H17.5C19.7091 2.5 21.5 4.29086 21.5 6.5V17.5C21.5 19.7091 19.7091 21.5 17.5 21.5H6.5C4.29086 21.5 2.5 19.7091 2.5 17.5V6.5Z" stroke="#222222" stroke-linecap="round"/>
<path d="M2.5 14.4999L5.8055 11.1945C6.68783 10.3122 8.15379 10.4443 8.86406 11.4702L10.7664 14.218C11.4311 15.1781 12.7735 15.3669 13.6773 14.6275L16.0992 12.646C16.8944 11.9954 18.0533 12.0532 18.7798 12.7797L21.5 15.4999" stroke="#222222" stroke-linecap="round"/>
<path d="M18 7C18 8.10457 17.1046 9 16 9C14.8954 9 14 8.10457 14 7C14 5.89543 14.8954 5 16 5C17.1046 5 18 5.89543 18 7ZM14.7963 7C14.7963 7.66476 15.3352 8.20366 16 8.20366C16.6648 8.20366 17.2037 7.66476 17.2037 7C17.2037 6.33524 16.6648 5.79634 16 5.79634C15.3352 5.79634 14.7963 6.33524 14.7963 7Z" fill="#222222"/>
</svg>
