<svg width="24" height="24" viewBox="0 0 24 24" fill="none" xmlns="http://www.w3.org/2000/svg">
<path d="M14 15C14 16.1046 13.1046 17 12 17C10.8954 17 10 16.1046 10 15C10 13.8954 10.8954 13 12 13C13.1046 13 14 13.8954 14 15ZM10.9939 15C10.9939 15.5556 11.4444 16.0061 12 16.0061C12.5556 16.0061 13.0061 15.5556 13.0061 15C13.0061 14.4444 12.5556 13.9939 12 13.9939C11.4444 13.9939 10.9939 14.4444 10.9939 15Z" fill="#222222"/>
<path d="M4.5 13.5C4.5 11.6144 4.5 10.6716 5.08579 10.0858C5.67157 9.5 6.61438 9.5 8.5 9.5H15.5C17.3856 9.5 18.3284 9.5 18.9142 10.0858C19.5 10.6716 19.5 11.6144 19.5 13.5V14.5C19.5 17.3284 19.5 18.7426 18.6213 19.6213C17.7426 20.5 16.3284 20.5 13.5 20.5H10.5C7.67157 20.5 6.25736 20.5 5.37868 19.6213C4.5 18.7426 4.5 17.3284 4.5 14.5V13.5Z" stroke="#222222" stroke-linecap="round"/>
<path d="M16.5 9.5V8C16.5 5.51472 14.4853 3.5 12 3.5V3.5C9.51472 3.5 7.5 5.51472 7.5 8V9.5" stroke="#222222" stroke-linecap="round"/>
</svg>
