<svg width="24" height="24" viewBox="0 0 24 24" fill="none" xmlns="http://www.w3.org/2000/svg">
<path d="M4 13.0002C4 11.1146 4 10.1718 4.58579 9.58598C5.17157 9.0002 6.11438 9.0002 8 9.0002H16C17.8856 9.0002 18.8284 9.0002 19.4142 9.58598C20 10.1718 20 11.1146 20 13.0002V15.0002C20 17.8286 20 19.2428 19.1213 20.1215C18.2426 21.0002 16.8284 21.0002 14 21.0002H10C7.17157 21.0002 5.75736 21.0002 4.87868 20.1215C4 19.2428 4 17.8286 4 15.0002V13.0002Z" stroke="#222222" stroke-linecap="round"/>
<path d="M14 15C14 16.1045 13.1046 17 12 17C10.8954 17 10 16.1045 10 15C10 13.8954 10.8954 13 12 13C13.1046 13 14 13.8954 14 15ZM10.9939 15C10.9939 15.5556 11.4444 16.006 12 16.006C12.5556 16.006 13.0061 15.5556 13.0061 15C13.0061 14.4443 12.5556 13.9939 12 13.9939C11.4444 13.9939 10.9939 14.4443 10.9939 15Z" fill="#222222"/>
<path d="M16.5 9.00001L16.5775 8.37942C16.8365 6.30783 15.9043 4.26745 14.1688 3.10705V3.10705C12.1024 1.72538 9.36727 1.89568 7.4882 3.523L6.66988 4.23169" stroke="#222222" stroke-linecap="round"/>
</svg>
